<svg width="1436" height="465" viewBox="0 0 1436 465" fill="none" xmlns="http://www.w3.org/2000/svg">
<path d="M0 422.51C202.703 422.51 347.472 387.633 480.333 389.758C789.74 394.705 643.639 247.682 960.667 247.682C1305.86 247.682 1223.24 118 1441 118" stroke="#5F82FF" stroke-width="3"/>
<path d="M480.333 389.758C347.472 387.633 202.703 422.51 0 422.51V465H1441V118C1223.24 118 1305.86 247.682 960.667 247.682C643.639 247.682 789.74 394.705 480.333 389.758Z" fill="url(#paint0_linear)" fill-opacity="0.4"/>
<line x1="924.5" y1="200" x2="924.5" y2="389" stroke="#D8E0F7"/>
<line x1="1332.5" x2="1332.5" y2="317" stroke="#D8E0F7"/>
<line x1="515.5" y1="378" x2="515.5" y2="437" stroke="#D8E0F7"/>
<line x1="107.5" y1="262" x2="107.5" y2="452" stroke="#D8E0F7"/>
<defs>
<linearGradient id="paint0_linear" x1="278.466" y1="465.443" x2="278.466" y2="10.0051" gradientUnits="userSpaceOnUse">
<stop stop-color="#4B71FF" stop-opacity="0"/>
<stop offset="1" stop-color="#6B89F8"/>
</linearGradient>
</defs>
</svg>
