<svg width="1270" height="330" viewBox="0 0 1270 330" fill="none" xmlns="http://www.w3.org/2000/svg">
    <g filter="url(#filter0_d)">
    <circle cx="839.5" cy="136.5" r="7.5" fill="white"/>
    <circle cx="839.5" cy="136.5" r="6.5" stroke="#5E80FE" stroke-width="2"/>
    </g>
    <g filter="url(#filter1_d)">
    <circle cx="1247.5" cy="22.5" r="7.5" fill="white"/>
    <circle cx="1247.5" cy="22.5" r="6.5" stroke="#5E80FE" stroke-width="2"/>
    </g>
    <g filter="url(#filter2_d)">
    <circle cx="22.5" cy="307.5" r="7.5" fill="white"/>
    <circle cx="22.5" cy="307.5" r="6.5" stroke="#5E80FE" stroke-width="2"/>
    </g>
    <g filter="url(#filter3_d)">
    <circle cx="430.5" cy="277.5" r="7.5" fill="white"/>
    <circle cx="430.5" cy="277.5" r="6.5" stroke="#5E80FE" stroke-width="2"/>
    </g>
    <g filter="url(#filter4_d)">
    <mask id="path-9-inside-1" fill="white">
    <path fill-rule="evenodd" clip-rule="evenodd" d="M477 191C477 189.343 475.657 188 474 188H388C386.343 188 385 189.343 385 191V248.26C385 249.917 386.343 251.26 388 251.26H424.669C425.665 251.26 426.596 251.754 427.154 252.579L428.515 254.591C429.705 256.35 432.295 256.35 433.485 254.591L434.846 252.579C435.403 251.754 436.335 251.26 437.331 251.26H474C475.657 251.26 477 249.917 477 248.26V191Z"/>
    </mask>
    <path fill-rule="evenodd" clip-rule="evenodd" d="M477 191C477 189.343 475.657 188 474 188H388C386.343 188 385 189.343 385 191V248.26C385 249.917 386.343 251.26 388 251.26H424.669C425.665 251.26 426.596 251.754 427.154 252.579L428.515 254.591C429.705 256.35 432.295 256.35 433.485 254.591L434.846 252.579C435.403 251.754 436.335 251.26 437.331 251.26H474C475.657 251.26 477 249.917 477 248.26V191Z" fill="white"/>
    <path d="M434.846 252.579L434.017 252.019L434.846 252.579ZM428.515 254.591L429.343 254.031L428.515 254.591ZM427.154 252.579L426.326 253.14L427.154 252.579ZM388 189H474V187H388V189ZM386 248.26V191H384V248.26H386ZM424.669 250.26H388V252.26H424.669V250.26ZM429.343 254.031L427.983 252.019L426.326 253.14L427.687 255.151L429.343 254.031ZM434.017 252.019L432.657 254.031L434.313 255.151L435.674 253.14L434.017 252.019ZM474 250.26H437.331V252.26H474V250.26ZM476 191V248.26H478V191H476ZM474 252.26C476.209 252.26 478 250.469 478 248.26H476C476 249.365 475.105 250.26 474 250.26V252.26ZM435.674 253.14C436.046 252.59 436.667 252.26 437.331 252.26V250.26C436.003 250.26 434.761 250.919 434.017 252.019L435.674 253.14ZM427.687 255.151C429.273 257.497 432.727 257.497 434.313 255.151L432.657 254.031C431.864 255.204 430.136 255.204 429.343 254.031L427.687 255.151ZM424.669 252.26C425.333 252.26 425.954 252.59 426.326 253.14L427.983 252.019C427.239 250.919 425.997 250.26 424.669 250.26V252.26ZM384 248.26C384 250.469 385.791 252.26 388 252.26V250.26C386.895 250.26 386 249.365 386 248.26H384ZM474 189C475.105 189 476 189.895 476 191H478C478 188.791 476.209 187 474 187V189ZM388 187C385.791 187 384 188.791 384 191H386C386 189.895 386.895 189 388 189V187Z" fill="#D8E0F7" mask="url(#path-9-inside-1)"/>
    <path d="M414 221.25C414 211.723 421.668 204 431.128 204C432.871 204 434.554 204.262 436.139 204.75" stroke="#5F82FF" stroke-width="4" stroke-linecap="round" stroke-linejoin="round"/>
    <path fill-rule="evenodd" clip-rule="evenodd" d="M427.442 224.962C429.477 227.013 432.778 227.013 434.814 224.962C436.849 222.912 445.276 208.5 444.532 207.75C443.787 207 429.477 215.487 427.442 217.538C425.406 219.588 425.406 222.912 427.442 224.962ZM431.127 222.75C431.95 222.75 432.617 222.078 432.617 221.25C432.617 220.422 431.95 219.75 431.127 219.75C430.305 219.75 429.638 220.422 429.638 221.25C429.638 222.078 430.305 222.75 431.127 222.75Z" fill="#5F82FF"/>
    <ellipse cx="416.234" cy="230.25" rx="1.48936" ry="1.5" fill="#5F82FF"/>
    <ellipse cx="422.191" cy="236.25" rx="1.48936" ry="1.5" fill="#5F82FF"/>
    <ellipse cx="431.128" cy="238.5" rx="1.48936" ry="1.5" fill="#5F82FF"/>
    <ellipse cx="440.064" cy="236.25" rx="1.48936" ry="1.5" fill="#5F82FF"/>
    <ellipse cx="445.277" cy="230.25" rx="1.48936" ry="1.5" fill="#5F82FF"/>
    <ellipse cx="447.511" cy="221.25" rx="1.48936" ry="1.5" fill="#5F82FF"/>
    </g>
    <defs>
    <filter id="filter0_d" x="817" y="114" width="45" height="45" filterUnits="userSpaceOnUse" color-interpolation-filters="sRGB">
    <feFlood flood-opacity="0" result="BackgroundImageFix"/>
    <feColorMatrix in="SourceAlpha" type="matrix" values="0 0 0 0 0 0 0 0 0 0 0 0 0 0 0 0 0 0 127 0" result="hardAlpha"/>
    <feOffset/>
    <feGaussianBlur stdDeviation="7.5"/>
    <feColorMatrix type="matrix" values="0 0 0 0 0.323144 0 0 0 0 0.512664 0 0 0 0 1 0 0 0 0.25 0"/>
    <feBlend mode="normal" in2="BackgroundImageFix" result="effect1_dropShadow"/>
    <feBlend mode="normal" in="SourceGraphic" in2="effect1_dropShadow" result="shape"/>
    </filter>
    <filter id="filter1_d" x="1225" y="0" width="45" height="45" filterUnits="userSpaceOnUse" color-interpolation-filters="sRGB">
    <feFlood flood-opacity="0" result="BackgroundImageFix"/>
    <feColorMatrix in="SourceAlpha" type="matrix" values="0 0 0 0 0 0 0 0 0 0 0 0 0 0 0 0 0 0 127 0" result="hardAlpha"/>
    <feOffset/>
    <feGaussianBlur stdDeviation="7.5"/>
    <feColorMatrix type="matrix" values="0 0 0 0 0.323144 0 0 0 0 0.512664 0 0 0 0 1 0 0 0 0.25 0"/>
    <feBlend mode="normal" in2="BackgroundImageFix" result="effect1_dropShadow"/>
    <feBlend mode="normal" in="SourceGraphic" in2="effect1_dropShadow" result="shape"/>
    </filter>
    <filter id="filter2_d" x="0" y="285" width="45" height="45" filterUnits="userSpaceOnUse" color-interpolation-filters="sRGB">
    <feFlood flood-opacity="0" result="BackgroundImageFix"/>
    <feColorMatrix in="SourceAlpha" type="matrix" values="0 0 0 0 0 0 0 0 0 0 0 0 0 0 0 0 0 0 127 0" result="hardAlpha"/>
    <feOffset/>
    <feGaussianBlur stdDeviation="7.5"/>
    <feColorMatrix type="matrix" values="0 0 0 0 0.323144 0 0 0 0 0.512664 0 0 0 0 1 0 0 0 0.25 0"/>
    <feBlend mode="normal" in2="BackgroundImageFix" result="effect1_dropShadow"/>
    <feBlend mode="normal" in="SourceGraphic" in2="effect1_dropShadow" result="shape"/>
    </filter>
    <filter id="filter3_d" x="408" y="255" width="45" height="45" filterUnits="userSpaceOnUse" color-interpolation-filters="sRGB">
    <feFlood flood-opacity="0" result="BackgroundImageFix"/>
    <feColorMatrix in="SourceAlpha" type="matrix" values="0 0 0 0 0 0 0 0 0 0 0 0 0 0 0 0 0 0 127 0" result="hardAlpha"/>
    <feOffset/>
    <feGaussianBlur stdDeviation="7.5"/>
    <feColorMatrix type="matrix" values="0 0 0 0 0.323144 0 0 0 0 0.512664 0 0 0 0 1 0 0 0 0.25 0"/>
    <feBlend mode="normal" in2="BackgroundImageFix" result="effect1_dropShadow"/>
    <feBlend mode="normal" in="SourceGraphic" in2="effect1_dropShadow" result="shape"/>
    </filter>
    <filter id="filter4_d" x="355" y="168" width="152" height="127.911" filterUnits="userSpaceOnUse" color-interpolation-filters="sRGB">
    <feFlood flood-opacity="0" result="BackgroundImageFix"/>
    <feColorMatrix in="SourceAlpha" type="matrix" values="0 0 0 0 0 0 0 0 0 0 0 0 0 0 0 0 0 0 127 0" result="hardAlpha"/>
    <feOffset dy="10"/>
    <feGaussianBlur stdDeviation="15"/>
    <feColorMatrix type="matrix" values="0 0 0 0 0.894415 0 0 0 0 0.918495 0 0 0 0 0.984716 0 0 0 1 0"/>
    <feBlend mode="normal" in2="BackgroundImageFix" result="effect1_dropShadow"/>
    <feBlend mode="normal" in="SourceGraphic" in2="effect1_dropShadow" result="shape"/>
    </filter>
    </defs>
</svg>
