<svg width="1436" height="465" viewBox="0 0 1436 465" fill="none" xmlns="http://www.w3.org/2000/svg">
<path d="M0 422.51C202.703 422.51 347.472 387.633 480.333 389.758C789.74 394.705 643.639 247.682 960.667 247.682C1305.86 247.682 1223.24 118 1441 118" stroke="#5F82FF" stroke-width="3"/>
<path d="M480.333 389.758C347.472 387.633 202.703 422.51 0 422.51V465H1441V118C1223.24 118 1305.86 247.682 960.667 247.682C643.639 247.682 789.74 394.705 480.333 389.758Z" fill="url(#paint0_linear)" fill-opacity="0.4"/>
<line x1="924.5" y1="200" x2="924.5" y2="389" stroke="#D8E0F7"/>
<line x1="1332.5" x2="1332.5" y2="317" stroke="#D8E0F7"/>
<g filter="url(#filter0_d)">
<mask id="path-5-inside-1" fill="white">
<path fill-rule="evenodd" clip-rule="evenodd" d="M1378 38C1378 36.3431 1376.66 35 1375 35H1289C1287.34 35 1286 36.3431 1286 38V95.26C1286 96.9168 1287.34 98.26 1289 98.26H1325.67C1326.67 98.26 1327.6 98.7543 1328.15 99.5794L1329.51 101.591C1330.7 103.35 1333.3 103.35 1334.48 101.591L1335.85 99.5794C1336.4 98.7543 1337.33 98.26 1338.33 98.26H1375C1376.66 98.26 1378 96.9168 1378 95.26V38Z"/>
</mask>
<path fill-rule="evenodd" clip-rule="evenodd" d="M1378 38C1378 36.3431 1376.66 35 1375 35H1289C1287.34 35 1286 36.3431 1286 38V95.26C1286 96.9168 1287.34 98.26 1289 98.26H1325.67C1326.67 98.26 1327.6 98.7543 1328.15 99.5794L1329.51 101.591C1330.7 103.35 1333.3 103.35 1334.48 101.591L1335.85 99.5794C1336.4 98.7543 1337.33 98.26 1338.33 98.26H1375C1376.66 98.26 1378 96.9168 1378 95.26V38Z" fill="white"/>
<path d="M1335.85 99.5794L1335.02 99.0192L1335.85 99.5794ZM1329.51 101.591L1330.34 101.031L1329.51 101.591ZM1334.48 101.591L1335.31 102.151L1334.48 101.591ZM1289 36H1375V34H1289V36ZM1287 95.26V38H1285V95.26H1287ZM1325.67 97.26H1289V99.26H1325.67V97.26ZM1330.34 101.031L1328.98 99.0191L1327.33 100.14L1328.69 102.151L1330.34 101.031ZM1335.02 99.0192L1333.66 101.031L1335.31 102.151L1336.67 100.14L1335.02 99.0192ZM1375 97.26H1338.33V99.26H1375V97.26ZM1377 38V95.26H1379V38H1377ZM1375 99.26C1377.21 99.26 1379 97.4691 1379 95.26H1377C1377 96.3645 1376.1 97.26 1375 97.26V99.26ZM1336.67 100.14C1337.05 99.5895 1337.67 99.26 1338.33 99.26V97.26C1337 97.26 1335.76 97.9191 1335.02 99.0192L1336.67 100.14ZM1328.69 102.151C1330.27 104.497 1333.73 104.497 1335.31 102.151L1333.66 101.031C1332.86 102.204 1331.14 102.204 1330.34 101.031L1328.69 102.151ZM1325.67 99.26C1326.33 99.26 1326.95 99.5895 1327.33 100.14L1328.98 99.0191C1328.24 97.9191 1327 97.26 1325.67 97.26V99.26ZM1285 95.26C1285 97.4691 1286.79 99.26 1289 99.26V97.26C1287.9 97.26 1287 96.3645 1287 95.26H1285ZM1375 36C1376.1 36 1377 36.8954 1377 38H1379C1379 35.7909 1377.21 34 1375 34V36ZM1289 34C1286.79 34 1285 35.7909 1285 38H1287C1287 36.8954 1287.9 36 1289 36V34Z" fill="#D8E0F7" mask="url(#path-5-inside-1)"/>
<path d="M1315 68.25C1315 58.7231 1322.67 51 1332.13 51C1333.87 51 1335.55 51.2624 1337.14 51.75" stroke="#5F82FF" stroke-width="4" stroke-linecap="round" stroke-linejoin="round"/>
<path fill-rule="evenodd" clip-rule="evenodd" d="M1328.44 71.9623C1330.48 74.0126 1333.78 74.0126 1335.81 71.9623C1337.85 69.912 1346.28 55.5 1345.53 54.75C1344.79 54 1330.48 62.4874 1328.44 64.5377C1326.41 66.5879 1326.41 69.912 1328.44 71.9623ZM1332.13 69.75C1332.95 69.75 1333.62 69.0785 1333.62 68.25C1333.62 67.4216 1332.95 66.75 1332.13 66.75C1331.3 66.75 1330.64 67.4216 1330.64 68.25C1330.64 69.0785 1331.3 69.75 1332.13 69.75Z" fill="#5F82FF"/>
<ellipse cx="1317.23" cy="77.25" rx="1.48936" ry="1.5" fill="#5F82FF"/>
<ellipse cx="1323.19" cy="83.25" rx="1.48936" ry="1.5" fill="#5F82FF"/>
<ellipse cx="1332.13" cy="85.5" rx="1.48936" ry="1.5" fill="#5F82FF"/>
<ellipse cx="1341.06" cy="83.25" rx="1.48936" ry="1.5" fill="#5F82FF"/>
<ellipse cx="1346.28" cy="77.25" rx="1.48936" ry="1.5" fill="#5F82FF"/>
<ellipse cx="1348.51" cy="68.25" rx="1.48936" ry="1.5" fill="#5F82FF"/>
</g>
<line x1="515.5" y1="378" x2="515.5" y2="437" stroke="#D8E0F7"/>
<line x1="107.5" y1="262" x2="107.5" y2="452" stroke="#D8E0F7"/>
<g filter="url(#filter1_d)">
<circle cx="924.5" cy="248.5" r="7.5" fill="white"/>
<circle cx="924.5" cy="248.5" r="6.5" stroke="#5E80FE" stroke-width="2"/>
</g>
<g filter="url(#filter2_d)">
<circle cx="1332.5" cy="134.5" r="7.5" fill="white"/>
<circle cx="1332.5" cy="134.5" r="6.5" stroke="#5E80FE" stroke-width="2"/>
</g>
<g filter="url(#filter3_d)">
<circle cx="107.5" cy="419.5" r="7.5" fill="white"/>
<circle cx="107.5" cy="419.5" r="6.5" stroke="#5E80FE" stroke-width="2"/>
</g>
<g filter="url(#filter4_d)">
<circle cx="515.5" cy="389.5" r="7.5" fill="white"/>
<circle cx="515.5" cy="389.5" r="6.5" stroke="#5E80FE" stroke-width="2"/>
</g>
<g filter="url(#filter5_d)">
<mask id="path-25-inside-2" fill="white">
<path fill-rule="evenodd" clip-rule="evenodd" d="M971 162C971 160.343 969.657 159 968 159H882C880.343 159 879 160.343 879 162V219.26C879 220.917 880.343 222.26 882 222.26H918.669C919.665 222.26 920.596 222.754 921.154 223.579L922.515 225.591C923.705 227.35 926.295 227.35 927.485 225.591L928.846 223.579C929.404 222.754 930.335 222.26 931.331 222.26H968C969.657 222.26 971 220.917 971 219.26V162Z"/>
</mask>
<path fill-rule="evenodd" clip-rule="evenodd" d="M971 162C971 160.343 969.657 159 968 159H882C880.343 159 879 160.343 879 162V219.26C879 220.917 880.343 222.26 882 222.26H918.669C919.665 222.26 920.596 222.754 921.154 223.579L922.515 225.591C923.705 227.35 926.295 227.35 927.485 225.591L928.846 223.579C929.404 222.754 930.335 222.26 931.331 222.26H968C969.657 222.26 971 220.917 971 219.26V162Z" fill="white"/>
<path d="M928.846 223.579L928.017 223.019L928.846 223.579ZM922.515 225.591L923.343 225.031L922.515 225.591ZM927.485 225.591L928.313 226.151L927.485 225.591ZM882 160H968V158H882V160ZM880 219.26V162H878V219.26H880ZM918.669 221.26H882V223.26H918.669V221.26ZM923.343 225.031L921.983 223.019L920.326 224.14L921.687 226.151L923.343 225.031ZM928.017 223.019L926.657 225.031L928.313 226.151L929.674 224.14L928.017 223.019ZM968 221.26H931.331V223.26H968V221.26ZM970 162V219.26H972V162H970ZM968 223.26C970.209 223.26 972 221.469 972 219.26H970C970 220.365 969.105 221.26 968 221.26V223.26ZM929.674 224.14C930.046 223.59 930.667 223.26 931.331 223.26V221.26C930.003 221.26 928.761 221.919 928.017 223.019L929.674 224.14ZM921.687 226.151C923.273 228.497 926.727 228.497 928.313 226.151L926.657 225.031C925.863 226.204 924.136 226.204 923.343 225.031L921.687 226.151ZM918.669 223.26C919.333 223.26 919.954 223.59 920.326 224.14L921.983 223.019C921.239 221.919 919.997 221.26 918.669 221.26V223.26ZM878 219.26C878 221.469 879.791 223.26 882 223.26V221.26C880.895 221.26 880 220.365 880 219.26H878ZM968 160C969.105 160 970 160.895 970 162H972C972 159.791 970.209 158 968 158V160ZM882 158C879.791 158 878 159.791 878 162H880C880 160.895 880.895 160 882 160V158Z" fill="#D8E0F7" mask="url(#path-25-inside-2)"/>
<path d="M908 192.25C908 182.723 915.668 175 925.128 175C926.871 175 928.554 175.262 930.139 175.75" stroke="#5F82FF" stroke-width="4" stroke-linecap="round" stroke-linejoin="round"/>
<path fill-rule="evenodd" clip-rule="evenodd" d="M921.442 195.962C923.477 198.013 926.778 198.013 928.814 195.962C930.849 193.912 939.276 179.5 938.532 178.75C937.787 178 923.477 186.487 921.442 188.538C919.406 190.588 919.406 193.912 921.442 195.962ZM925.128 193.75C925.95 193.75 926.617 193.078 926.617 192.25C926.617 191.422 925.95 190.75 925.128 190.75C924.305 190.75 923.638 191.422 923.638 192.25C923.638 193.078 924.305 193.75 925.128 193.75Z" fill="#5F82FF"/>
<ellipse cx="910.234" cy="201.25" rx="1.48936" ry="1.5" fill="#5F82FF"/>
<ellipse cx="916.192" cy="207.25" rx="1.48936" ry="1.5" fill="#5F82FF"/>
<ellipse cx="925.128" cy="209.5" rx="1.48936" ry="1.5" fill="#5F82FF"/>
<ellipse cx="934.064" cy="207.25" rx="1.48936" ry="1.5" fill="#5F82FF"/>
<ellipse cx="939.277" cy="201.25" rx="1.48936" ry="1.5" fill="#5F82FF"/>
<ellipse cx="941.511" cy="192.25" rx="1.48936" ry="1.5" fill="#5F82FF"/>
</g>
<g filter="url(#filter6_d)">
<mask id="path-35-inside-3" fill="white">
<path fill-rule="evenodd" clip-rule="evenodd" d="M154 335C154 333.343 152.657 332 151 332H65C63.3431 332 62 333.343 62 335V392.26C62 393.917 63.3431 395.26 65 395.26H101.669C102.665 395.26 103.596 395.754 104.154 396.579L105.515 398.591C106.705 400.35 109.295 400.35 110.485 398.591L111.846 396.579C112.404 395.754 113.335 395.26 114.331 395.26H151C152.657 395.26 154 393.917 154 392.26V335Z"/>
</mask>
<path fill-rule="evenodd" clip-rule="evenodd" d="M154 335C154 333.343 152.657 332 151 332H65C63.3431 332 62 333.343 62 335V392.26C62 393.917 63.3431 395.26 65 395.26H101.669C102.665 395.26 103.596 395.754 104.154 396.579L105.515 398.591C106.705 400.35 109.295 400.35 110.485 398.591L111.846 396.579C112.404 395.754 113.335 395.26 114.331 395.26H151C152.657 395.26 154 393.917 154 392.26V335Z" fill="white"/>
<path d="M111.846 396.579L111.017 396.019L111.846 396.579ZM105.515 398.591L106.343 398.031L105.515 398.591ZM110.485 398.591L111.313 399.151L110.485 398.591ZM65 333H151V331H65V333ZM63 392.26V335H61V392.26H63ZM101.669 394.26H65V396.26H101.669V394.26ZM106.343 398.031L104.983 396.019L103.326 397.14L104.687 399.151L106.343 398.031ZM111.017 396.019L109.657 398.031L111.313 399.151L112.674 397.14L111.017 396.019ZM151 394.26H114.331V396.26H151V394.26ZM153 335V392.26H155V335H153ZM151 396.26C153.209 396.26 155 394.469 155 392.26H153C153 393.365 152.105 394.26 151 394.26V396.26ZM112.674 397.14C113.046 396.59 113.667 396.26 114.331 396.26V394.26C113.003 394.26 111.761 394.919 111.017 396.019L112.674 397.14ZM104.687 399.151C106.273 401.497 109.727 401.497 111.313 399.151L109.657 398.031C108.863 399.204 107.136 399.204 106.343 398.031L104.687 399.151ZM101.669 396.26C102.333 396.26 102.954 396.59 103.326 397.14L104.983 396.019C104.239 394.919 102.997 394.26 101.669 394.26V396.26ZM61 392.26C61 394.469 62.7909 396.26 65 396.26V394.26C63.8954 394.26 63 393.365 63 392.26H61ZM151 333C152.105 333 153 333.895 153 335H155C155 332.791 153.209 331 151 331V333ZM65 331C62.7909 331 61 332.791 61 335H63C63 333.895 63.8954 333 65 333V331Z" fill="#D8E0F7" mask="url(#path-35-inside-3)"/>
<path d="M91 365.25C91 355.723 98.6683 348 108.128 348C109.871 348 111.554 348.262 113.139 348.75" stroke="#5F82FF" stroke-width="4" stroke-linecap="round" stroke-linejoin="round"/>
<path fill-rule="evenodd" clip-rule="evenodd" d="M104.441 368.962C106.477 371.013 109.778 371.013 111.813 368.962C113.849 366.912 122.276 352.5 121.532 351.75C120.787 351 106.477 359.487 104.441 361.538C102.406 363.588 102.406 366.912 104.441 368.962ZM108.127 366.75C108.95 366.75 109.617 366.078 109.617 365.25C109.617 364.422 108.95 363.75 108.127 363.75C107.305 363.75 106.638 364.422 106.638 365.25C106.638 366.078 107.305 366.75 108.127 366.75Z" fill="#5F82FF"/>
<ellipse cx="93.2341" cy="374.25" rx="1.48936" ry="1.5" fill="#5F82FF"/>
<ellipse cx="99.1914" cy="380.25" rx="1.48936" ry="1.5" fill="#5F82FF"/>
<ellipse cx="108.128" cy="382.5" rx="1.48936" ry="1.5" fill="#5F82FF"/>
<ellipse cx="117.064" cy="380.25" rx="1.48936" ry="1.5" fill="#5F82FF"/>
<ellipse cx="122.277" cy="374.25" rx="1.48936" ry="1.5" fill="#5F82FF"/>
<ellipse cx="124.51" cy="365.25" rx="1.48936" ry="1.5" fill="#5F82FF"/>
</g>
<g filter="url(#filter7_d)">
<mask id="path-45-inside-4" fill="white">
<path fill-rule="evenodd" clip-rule="evenodd" d="M562 303C562 301.343 560.657 300 559 300H473C471.343 300 470 301.343 470 303V360.26C470 361.917 471.343 363.26 473 363.26H509.669C510.665 363.26 511.596 363.754 512.154 364.579L513.515 366.591C514.705 368.35 517.295 368.35 518.485 366.591L519.846 364.579C520.403 363.754 521.335 363.26 522.331 363.26H559C560.657 363.26 562 361.917 562 360.26V303Z"/>
</mask>
<path fill-rule="evenodd" clip-rule="evenodd" d="M562 303C562 301.343 560.657 300 559 300H473C471.343 300 470 301.343 470 303V360.26C470 361.917 471.343 363.26 473 363.26H509.669C510.665 363.26 511.596 363.754 512.154 364.579L513.515 366.591C514.705 368.35 517.295 368.35 518.485 366.591L519.846 364.579C520.403 363.754 521.335 363.26 522.331 363.26H559C560.657 363.26 562 361.917 562 360.26V303Z" fill="white"/>
<path d="M519.846 364.579L519.017 364.019L519.846 364.579ZM513.515 366.591L514.343 366.031L513.515 366.591ZM512.154 364.579L511.326 365.14L512.154 364.579ZM473 301H559V299H473V301ZM471 360.26V303H469V360.26H471ZM509.669 362.26H473V364.26H509.669V362.26ZM514.343 366.031L512.983 364.019L511.326 365.14L512.687 367.151L514.343 366.031ZM519.017 364.019L517.657 366.031L519.313 367.151L520.674 365.14L519.017 364.019ZM559 362.26H522.331V364.26H559V362.26ZM561 303V360.26H563V303H561ZM559 364.26C561.209 364.26 563 362.469 563 360.26H561C561 361.365 560.105 362.26 559 362.26V364.26ZM520.674 365.14C521.046 364.59 521.667 364.26 522.331 364.26V362.26C521.003 362.26 519.761 362.919 519.017 364.019L520.674 365.14ZM512.687 367.151C514.273 369.497 517.727 369.497 519.313 367.151L517.657 366.031C516.864 367.204 515.136 367.204 514.343 366.031L512.687 367.151ZM509.669 364.26C510.333 364.26 510.954 364.59 511.326 365.14L512.983 364.019C512.239 362.919 510.997 362.26 509.669 362.26V364.26ZM469 360.26C469 362.469 470.791 364.26 473 364.26V362.26C471.895 362.26 471 361.365 471 360.26H469ZM559 301C560.105 301 561 301.895 561 303H563C563 300.791 561.209 299 559 299V301ZM473 299C470.791 299 469 300.791 469 303H471C471 301.895 471.895 301 473 301V299Z" fill="#D8E0F7" mask="url(#path-45-inside-4)"/>
<path d="M499 333.25C499 323.723 506.668 316 516.128 316C517.871 316 519.554 316.262 521.139 316.75" stroke="#5F82FF" stroke-width="4" stroke-linecap="round" stroke-linejoin="round"/>
<path fill-rule="evenodd" clip-rule="evenodd" d="M512.442 336.962C514.477 339.013 517.778 339.013 519.814 336.962C521.849 334.912 530.276 320.5 529.532 319.75C528.787 319 514.477 327.487 512.442 329.538C510.406 331.588 510.406 334.912 512.442 336.962ZM516.127 334.75C516.95 334.75 517.617 334.078 517.617 333.25C517.617 332.422 516.95 331.75 516.127 331.75C515.305 331.75 514.638 332.422 514.638 333.25C514.638 334.078 515.305 334.75 516.127 334.75Z" fill="#5F82FF"/>
<ellipse cx="501.234" cy="342.25" rx="1.48936" ry="1.5" fill="#5F82FF"/>
<ellipse cx="507.191" cy="348.25" rx="1.48936" ry="1.5" fill="#5F82FF"/>
<ellipse cx="516.128" cy="350.5" rx="1.48936" ry="1.5" fill="#5F82FF"/>
<ellipse cx="525.064" cy="348.25" rx="1.48936" ry="1.5" fill="#5F82FF"/>
<ellipse cx="530.277" cy="342.25" rx="1.48936" ry="1.5" fill="#5F82FF"/>
<ellipse cx="532.511" cy="333.25" rx="1.48936" ry="1.5" fill="#5F82FF"/>
</g>
<defs>
<filter id="filter0_d" x="1256" y="15" width="152" height="127.911" filterUnits="userSpaceOnUse" color-interpolation-filters="sRGB">
<feFlood flood-opacity="0" result="BackgroundImageFix"/>
<feColorMatrix in="SourceAlpha" type="matrix" values="0 0 0 0 0 0 0 0 0 0 0 0 0 0 0 0 0 0 127 0" result="hardAlpha"/>
<feOffset dy="10"/>
<feGaussianBlur stdDeviation="15"/>
<feColorMatrix type="matrix" values="0 0 0 0 0.894415 0 0 0 0 0.918495 0 0 0 0 0.984716 0 0 0 1 0"/>
<feBlend mode="normal" in2="BackgroundImageFix" result="effect1_dropShadow"/>
<feBlend mode="normal" in="SourceGraphic" in2="effect1_dropShadow" result="shape"/>
</filter>
<filter id="filter1_d" x="902" y="226" width="45" height="45" filterUnits="userSpaceOnUse" color-interpolation-filters="sRGB">
<feFlood flood-opacity="0" result="BackgroundImageFix"/>
<feColorMatrix in="SourceAlpha" type="matrix" values="0 0 0 0 0 0 0 0 0 0 0 0 0 0 0 0 0 0 127 0" result="hardAlpha"/>
<feOffset/>
<feGaussianBlur stdDeviation="7.5"/>
<feColorMatrix type="matrix" values="0 0 0 0 0.323144 0 0 0 0 0.512664 0 0 0 0 1 0 0 0 0.25 0"/>
<feBlend mode="normal" in2="BackgroundImageFix" result="effect1_dropShadow"/>
<feBlend mode="normal" in="SourceGraphic" in2="effect1_dropShadow" result="shape"/>
</filter>
<filter id="filter2_d" x="1310" y="112" width="45" height="45" filterUnits="userSpaceOnUse" color-interpolation-filters="sRGB">
<feFlood flood-opacity="0" result="BackgroundImageFix"/>
<feColorMatrix in="SourceAlpha" type="matrix" values="0 0 0 0 0 0 0 0 0 0 0 0 0 0 0 0 0 0 127 0" result="hardAlpha"/>
<feOffset/>
<feGaussianBlur stdDeviation="7.5"/>
<feColorMatrix type="matrix" values="0 0 0 0 0.323144 0 0 0 0 0.512664 0 0 0 0 1 0 0 0 0.25 0"/>
<feBlend mode="normal" in2="BackgroundImageFix" result="effect1_dropShadow"/>
<feBlend mode="normal" in="SourceGraphic" in2="effect1_dropShadow" result="shape"/>
</filter>
<filter id="filter3_d" x="85" y="397" width="45" height="45" filterUnits="userSpaceOnUse" color-interpolation-filters="sRGB">
<feFlood flood-opacity="0" result="BackgroundImageFix"/>
<feColorMatrix in="SourceAlpha" type="matrix" values="0 0 0 0 0 0 0 0 0 0 0 0 0 0 0 0 0 0 127 0" result="hardAlpha"/>
<feOffset/>
<feGaussianBlur stdDeviation="7.5"/>
<feColorMatrix type="matrix" values="0 0 0 0 0.323144 0 0 0 0 0.512664 0 0 0 0 1 0 0 0 0.25 0"/>
<feBlend mode="normal" in2="BackgroundImageFix" result="effect1_dropShadow"/>
<feBlend mode="normal" in="SourceGraphic" in2="effect1_dropShadow" result="shape"/>
</filter>
<filter id="filter4_d" x="493" y="367" width="45" height="45" filterUnits="userSpaceOnUse" color-interpolation-filters="sRGB">
<feFlood flood-opacity="0" result="BackgroundImageFix"/>
<feColorMatrix in="SourceAlpha" type="matrix" values="0 0 0 0 0 0 0 0 0 0 0 0 0 0 0 0 0 0 127 0" result="hardAlpha"/>
<feOffset/>
<feGaussianBlur stdDeviation="7.5"/>
<feColorMatrix type="matrix" values="0 0 0 0 0.323144 0 0 0 0 0.512664 0 0 0 0 1 0 0 0 0.25 0"/>
<feBlend mode="normal" in2="BackgroundImageFix" result="effect1_dropShadow"/>
<feBlend mode="normal" in="SourceGraphic" in2="effect1_dropShadow" result="shape"/>
</filter>
<filter id="filter5_d" x="849" y="139" width="152" height="127.911" filterUnits="userSpaceOnUse" color-interpolation-filters="sRGB">
<feFlood flood-opacity="0" result="BackgroundImageFix"/>
<feColorMatrix in="SourceAlpha" type="matrix" values="0 0 0 0 0 0 0 0 0 0 0 0 0 0 0 0 0 0 127 0" result="hardAlpha"/>
<feOffset dy="10"/>
<feGaussianBlur stdDeviation="15"/>
<feColorMatrix type="matrix" values="0 0 0 0 0.894415 0 0 0 0 0.918495 0 0 0 0 0.984716 0 0 0 1 0"/>
<feBlend mode="normal" in2="BackgroundImageFix" result="effect1_dropShadow"/>
<feBlend mode="normal" in="SourceGraphic" in2="effect1_dropShadow" result="shape"/>
</filter>
<filter id="filter6_d" x="32" y="312" width="152" height="127.911" filterUnits="userSpaceOnUse" color-interpolation-filters="sRGB">
<feFlood flood-opacity="0" result="BackgroundImageFix"/>
<feColorMatrix in="SourceAlpha" type="matrix" values="0 0 0 0 0 0 0 0 0 0 0 0 0 0 0 0 0 0 127 0" result="hardAlpha"/>
<feOffset dy="10"/>
<feGaussianBlur stdDeviation="15"/>
<feColorMatrix type="matrix" values="0 0 0 0 0.894415 0 0 0 0 0.918495 0 0 0 0 0.984716 0 0 0 1 0"/>
<feBlend mode="normal" in2="BackgroundImageFix" result="effect1_dropShadow"/>
<feBlend mode="normal" in="SourceGraphic" in2="effect1_dropShadow" result="shape"/>
</filter>
<filter id="filter7_d" x="440" y="280" width="152" height="127.911" filterUnits="userSpaceOnUse" color-interpolation-filters="sRGB">
<feFlood flood-opacity="0" result="BackgroundImageFix"/>
<feColorMatrix in="SourceAlpha" type="matrix" values="0 0 0 0 0 0 0 0 0 0 0 0 0 0 0 0 0 0 127 0" result="hardAlpha"/>
<feOffset dy="10"/>
<feGaussianBlur stdDeviation="15"/>
<feColorMatrix type="matrix" values="0 0 0 0 0.894415 0 0 0 0 0.918495 0 0 0 0 0.984716 0 0 0 1 0"/>
<feBlend mode="normal" in2="BackgroundImageFix" result="effect1_dropShadow"/>
<feBlend mode="normal" in="SourceGraphic" in2="effect1_dropShadow" result="shape"/>
</filter>
<linearGradient id="paint0_linear" x1="278.466" y1="465.443" x2="278.466" y2="10.0051" gradientUnits="userSpaceOnUse">
<stop stop-color="#4B71FF" stop-opacity="0"/>
<stop offset="1" stop-color="#6B89F8"/>
</linearGradient>
</defs>
</svg>
