<svg xmlns="http://www.w3.org/2000/svg" >
    <symbol id="baloon1" viewBox="0 0 1440 465">
            <g  filter="url(#filter1_d)">
                                    <mask id="path-6-inside-1" fill="white">
                                    <path fill-rule="evenodd" clip-rule="evenodd" d="M1378 48C1378 46.3431 1376.66 45 1375 45H1289C1287.34 45 1286 46.3431 1286 48V105.26C1286 106.917 1287.34 108.26 1289 108.26H1325.67C1326.67 108.26 1327.6 108.754 1328.15 109.579L1329.51 111.591C1330.7 113.35 1333.3 113.35 1334.48 111.591L1335.85 109.579C1336.4 108.754 1337.33 108.26 1338.33 108.26H1375C1376.66 108.26 1378 106.917 1378 105.26V48Z"/>
                                    </mask>
                                    <path fill-rule="evenodd" clip-rule="evenodd" d="M1378 48C1378 46.3431 1376.66 45 1375 45H1289C1287.34 45 1286 46.3431 1286 48V105.26C1286 106.917 1287.34 108.26 1289 108.26H1325.67C1326.67 108.26 1327.6 108.754 1328.15 109.579L1329.51 111.591C1330.7 113.35 1333.3 113.35 1334.48 111.591L1335.85 109.579C1336.4 108.754 1337.33 108.26 1338.33 108.26H1375C1376.66 108.26 1378 106.917 1378 105.26V48Z" fill="white"/>
                                    <path d="M1335.85 109.579L1335.02 109.019L1335.85 109.579ZM1329.51 111.591L1330.34 111.031L1329.51 111.591ZM1334.48 111.591L1335.31 112.151L1334.48 111.591ZM1289 46H1375V44H1289V46ZM1287 105.26V48H1285V105.26H1287ZM1325.67 107.26H1289V109.26H1325.67V107.26ZM1330.34 111.031L1328.98 109.019L1327.33 110.14L1328.69 112.151L1330.34 111.031ZM1335.02 109.019L1333.66 111.031L1335.31 112.151L1336.67 110.14L1335.02 109.019ZM1375 107.26H1338.33V109.26H1375V107.26ZM1377 48V105.26H1379V48H1377ZM1375 109.26C1377.21 109.26 1379 107.469 1379 105.26H1377C1377 106.365 1376.1 107.26 1375 107.26V109.26ZM1336.67 110.14C1337.05 109.59 1337.67 109.26 1338.33 109.26V107.26C1337 107.26 1335.76 107.919 1335.02 109.019L1336.67 110.14ZM1328.69 112.151C1330.27 114.497 1333.73 114.497 1335.31 112.151L1333.66 111.031C1332.86 112.204 1331.14 112.204 1330.34 111.031L1328.69 112.151ZM1325.67 109.26C1326.33 109.26 1326.95 109.59 1327.33 110.14L1328.98 109.019C1328.24 107.919 1327 107.26 1325.67 107.26V109.26ZM1285 105.26C1285 107.469 1286.79 109.26 1289 109.26V107.26C1287.9 107.26 1287 106.365 1287 105.26H1285ZM1375 46C1376.1 46 1377 46.8954 1377 48H1379C1379 45.7909 1377.21 44 1375 44V46ZM1289 44C1286.79 44 1285 45.7909 1285 48H1287C1287 46.8954 1287.9 46 1289 46V44Z" fill="#D8E0F7" mask="url(#path-6-inside-1)"/>
                                    <path d="M1315 78.25C1315 68.7231 1322.67 61 1332.13 61C1333.87 61 1335.55 61.2624 1337.14 61.75" stroke="#5F82FF" stroke-width="4" stroke-linecap="round" stroke-linejoin="round"/>
                                    <path fill-rule="evenodd" clip-rule="evenodd" d="M1328.44 81.9623C1330.48 84.0126 1333.78 84.0126 1335.81 81.9623C1337.85 79.912 1346.28 65.5 1345.53 64.75C1344.79 64 1330.48 72.4874 1328.44 74.5377C1326.41 76.5879 1326.41 79.912 1328.44 81.9623ZM1332.13 79.75C1332.95 79.75 1333.62 79.0785 1333.62 78.25C1333.62 77.4216 1332.95 76.75 1332.13 76.75C1331.3 76.75 1330.64 77.4216 1330.64 78.25C1330.64 79.0785 1331.3 79.75 1332.13 79.75Z" fill="#5F82FF"/>
                                    <ellipse cx="1317.23" cy="87.25" rx="1.48936" ry="1.5" fill="#5F82FF"/>
                                    <ellipse cx="1323.19" cy="93.25" rx="1.48936" ry="1.5" fill="#5F82FF"/>
                                    <ellipse cx="1332.13" cy="95.5" rx="1.48936" ry="1.5" fill="#5F82FF"/>
                                    <ellipse cx="1341.06" cy="93.25" rx="1.48936" ry="1.5" fill="#5F82FF"/>
                                    <ellipse cx="1346.28" cy="87.25" rx="1.48936" ry="1.5" fill="#5F82FF"/>
                                    <ellipse cx="1348.51" cy="78.25" rx="1.48936" ry="1.5" fill="#5F82FF"/>
            

                    <filter id="filter1_d" x="1256" y="25" width="152" height="127.911" filterUnits="userSpaceOnUse" color-interpolation-filters="sRGB">
                                    <feFlood flood-opacity="0" result="BackgroundImageFix"/>
                                    <feColorMatrix in="SourceAlpha" type="matrix" values="0 0 0 0 0 0 0 0 0 0 0 0 0 0 0 0 0 0 127 0" result="hardAlpha"/>
                                    <feOffset dy="10"/>
                                    <feGaussianBlur stdDeviation="15"/>
                                    <feColorMatrix type="matrix" values="0 0 0 0 0.894415 0 0 0 0 0.918495 0 0 0 0 0.984716 0 0 0 1 0"/>
                                    <feBlend mode="normal" in2="BackgroundImageFix" result="effect1_dropShadow"/>
                                    <feBlend mode="normal" in="SourceGraphic" in2="effect1_dropShadow" result="shape"/>
                    </filter>
                    </g>
    </symbol>

    <symbol id="baloon2" viewBox="0 0 1440 465">

    
    
    </symbol>




</svg>