<svg width="26" height="22" fill="none" xmlns="http://www.w3.org/2000/svg"><g filter="url(#filter0_d)"><path fill-rule="evenodd" clip-rule="evenodd" d="M21.033 1.84a6.642 6.642 0 01-1.945.549A3.477 3.477 0 0020.577.463a6.673 6.673 0 01-2.151.845A3.34 3.34 0 0015.954.211c-1.87 0-3.388 1.558-3.388 3.48 0 .272.03.538.088.792C9.839 4.338 7.342 2.952 5.672.847a3.536 3.536 0 00-.458 1.75c0 1.207.597 2.272 1.506 2.896a3.308 3.308 0 01-1.534-.436v.044c0 1.687 1.169 3.093 2.717 3.413a3.3 3.3 0 01-1.528.06c.43 1.382 1.682 2.388 3.164 2.416a6.686 6.686 0 01-5.015 1.44 9.403 9.403 0 005.192 1.564c6.23 0 9.637-5.302 9.637-9.9a9.59 9.59 0 00-.01-.45 6.976 6.976 0 001.69-1.803" fill="#6188FF"/></g><defs><filter id="filter0_d" x=".524" y=".211" width="24.51" height="21.784" filterUnits="userSpaceOnUse" color-interpolation-filters="sRGB"><feFlood flood-opacity="0" result="BackgroundImageFix"/><feColorMatrix in="SourceAlpha" values="0 0 0 0 0 0 0 0 0 0 0 0 0 0 0 0 0 0 127 0" result="hardAlpha"/><feOffset dy="4"/><feGaussianBlur stdDeviation="2"/><feComposite in2="hardAlpha" operator="out"/><feColorMatrix values="0 0 0 0 0 0 0 0 0 0 0 0 0 0 0 0 0 0 0.25 0"/><feBlend in2="BackgroundImageFix" result="effect1_dropShadow"/><feBlend in="SourceGraphic" in2="effect1_dropShadow" result="shape"/></filter></defs></svg>