<svg class="diagram__hover" width="152" height="128" fill="none" xmlns="http://www.w3.org/2000/svg"><g filter="url(#filter0_dddd)"><mask id="path-1-inside-1" fill="#fff"><path fill-rule="evenodd" clip-rule="evenodd" d="M122 23a3 3 0 00-3-3H33a3 3 0 00-3 3v57.26a3 3 0 003 3h36.67a3 3 0 012.484 1.32l1.36 2.011c1.19 1.76 3.781 1.76 4.971 0l1.36-2.012a3 3 0 012.486-1.319H119a3 3 0 003-3V23z"/></mask><path fill-rule="evenodd" clip-rule="evenodd" d="M122 23a3 3 0 00-3-3H33a3 3 0 00-3 3v57.26a3 3 0 003 3h36.67a3 3 0 012.484 1.32l1.36 2.011c1.19 1.76 3.781 1.76 4.971 0l1.36-2.012a3 3 0 012.486-1.319H119a3 3 0 003-3V23z" fill="#fff"/><path d="M79.846 84.58l-.829-.56.829.56zm-6.331 2.011l.828-.56-.828.56zm-1.36-2.012l-.83.56.83-.56zM33 21h86v-2H33v2zm-2 59.26V23h-2v57.26h2zm38.67 2H33v2h36.67v-2zm4.673 3.771l-1.36-2.012-1.657 1.12 1.36 2.012 1.657-1.12zm4.674-2.012l-1.36 2.012 1.656 1.12 1.36-2.011-1.656-1.12zM119 82.26H82.33v2H119v-2zM121 23v57.26h2V23h-2zm-2 61.26a4 4 0 004-4h-2a2 2 0 01-2 2v2zm-38.326.88a2 2 0 011.657-.88v-2a4 4 0 00-3.314 1.76l1.657 1.12zm-7.988 2.011c1.587 2.346 5.041 2.346 6.627 0l-1.656-1.12a2 2 0 01-3.314 0l-1.657 1.12zM69.67 84.26a2 2 0 011.657.88l1.657-1.12a4 4 0 00-3.314-1.76v2zm-40.67-4a4 4 0 004 4v-2a2 2 0 01-2-2h-2zM119 21a2 2 0 012 2h2a4 4 0 00-4-4v2zm-86-2a4 4 0 00-4 4h2a2 2 0 012-2v-2z" fill="#D8E0F7" mask="url(#path-1-inside-1)"/><path d="M59 53.25C59 43.723 66.668 36 76.128 36c1.743 0 3.426.262 5.01.75" stroke="#5F82FF" stroke-width="4" stroke-linecap="round" stroke-linejoin="round"/><path fill-rule="evenodd" clip-rule="evenodd" d="M72.442 56.962a5.187 5.187 0 007.372 0c2.035-2.05 10.463-16.462 9.718-17.212-.745-.75-15.055 7.737-17.09 9.788a5.277 5.277 0 000 7.424zm3.685-2.212c.823 0 1.49-.672 1.49-1.5s-.667-1.5-1.49-1.5c-.822 0-1.489.672-1.489 1.5s.667 1.5 1.49 1.5z" fill="#5F82FF"/><ellipse cx="61.234" cy="62.25" rx="1.489" ry="1.5" fill="#5F82FF"/><ellipse cx="67.192" cy="68.25" rx="1.489" ry="1.5" fill="#5F82FF"/><ellipse cx="76.127" cy="70.5" rx="1.489" ry="1.5" fill="#5F82FF"/><ellipse cx="85.064" cy="68.25" rx="1.489" ry="1.5" fill="#5F82FF"/><ellipse cx="90.277" cy="62.25" rx="1.489" ry="1.5" fill="#5F82FF"/><ellipse cx="92.511" cy="53.25" rx="1.489" ry="1.5" fill="#5F82FF"/></g><defs><filter id="filter0_dddd" x="0" y="0" width="152" height="127.911" filterUnits="userSpaceOnUse" color-interpolation-filters="sRGB"><feFlood flood-opacity="0" result="BackgroundImageFix"/><feColorMatrix in="SourceAlpha" values="0 0 0 0 0 0 0 0 0 0 0 0 0 0 0 0 0 0 127 0" result="hardAlpha"/><feOffset dy="10"/><feGaussianBlur stdDeviation="15"/><feColorMatrix values="0 0 0 0 0.894415 0 0 0 0 0.918495 0 0 0 0 0.984716 0 0 0 1 0"/><feBlend in2="BackgroundImageFix" result="effect1_dropShadow"/><feBlend in="SourceGraphic" in2="effect1_dropShadow" result="shape"/></filter></defs></svg>