<svg width="1436" height="465" fill="none" xmlns="http://www.w3.org/2000/svg"><path d="M0 422.51c202.703 0 347.472-34.877 480.333-32.752 309.407 4.947 163.306-142.076 480.334-142.076C1305.86 247.682 1223.24 118 1441 118" stroke="#5F82FF" stroke-width="3"/><path d="M480.333 389.758C347.472 387.633 202.703 422.51 0 422.51V465h1441V118c-217.76 0-135.14 129.682-480.333 129.682-317.028 0-170.927 147.023-480.334 142.076z" fill="url(#paint0_linear)" fill-opacity=".4"/><path stroke="#D8E0F7" d="M924.5 200v189m408-389v317m-817 61v59m-408-175v190"/><defs><linearGradient id="paint0_linear" x1="278.466" y1="465.443" x2="278.466" y2="10.005" gradientUnits="userSpaceOnUse"><stop stop-color="#4B71FF" stop-opacity="0"/><stop offset="1" stop-color="#6B89F8"/></linearGradient></defs></svg>