<svg xmlns="http://www.w3.org/2000/svg"><symbol id="baloon1" viewBox="0 0 1440 465"><g filter="url(#filter1_d)"><mask id="path-6-inside-1" fill="#fff"><path fill-rule="evenodd" clip-rule="evenodd" d="M1378 48c0-1.657-1.34-3-3-3h-86c-1.66 0-3 1.343-3 3v57.26c0 1.657 1.34 3 3 3h36.67c1 0 1.93.494 2.48 1.319l1.36 2.012c1.19 1.759 3.79 1.759 4.97 0l1.37-2.012a2.975 2.975 0 012.48-1.319H1375c1.66 0 3-1.343 3-3V48z"/></mask><path fill-rule="evenodd" clip-rule="evenodd" d="M1378 48c0-1.657-1.34-3-3-3h-86c-1.66 0-3 1.343-3 3v57.26c0 1.657 1.34 3 3 3h36.67c1 0 1.93.494 2.48 1.319l1.36 2.012c1.19 1.759 3.79 1.759 4.97 0l1.37-2.012a2.975 2.975 0 012.48-1.319H1375c1.66 0 3-1.343 3-3V48z" fill="#fff"/><path d="M1335.85 109.579l-.83-.56.83.56zm-6.34 2.012l.83-.56-.83.56zm4.97 0l.83.56-.83-.56zM1289 46h86v-2h-86v2zm-2 59.26V48h-2v57.26h2zm38.67 2H1289v2h36.67v-2zm4.67 3.771l-1.36-2.012-1.65 1.121 1.36 2.011 1.65-1.12zm4.68-2.012l-1.36 2.012 1.65 1.12 1.36-2.011-1.65-1.121zm39.98-1.759h-36.67v2H1375v-2zm2-59.26v57.26h2V48h-2zm-2 61.26a4 4 0 004-4h-2c0 1.105-.9 2-2 2v2zm-38.33.88c.38-.55 1-.88 1.66-.88v-2c-1.33 0-2.57.659-3.31 1.759l1.65 1.121zm-7.98 2.011c1.58 2.346 5.04 2.346 6.62 0l-1.65-1.12a2.006 2.006 0 01-3.32 0l-1.65 1.12zm-3.02-2.891c.66 0 1.28.33 1.66.88l1.65-1.121a3.986 3.986 0 00-3.31-1.759v2zm-40.67-4a4 4 0 004 4v-2c-1.1 0-2-.895-2-2h-2zM1375 46c1.1 0 2 .895 2 2h2a4 4 0 00-4-4v2zm-86-2a4 4 0 00-4 4h2c0-1.105.9-2 2-2v-2z" fill="#D8E0F7" mask="url(#path-6-inside-1)"/><path d="M1315 78.25c0-9.527 7.67-17.25 17.13-17.25 1.74 0 3.42.262 5.01.75" stroke="#5F82FF" stroke-width="4" stroke-linecap="round" stroke-linejoin="round"/><path fill-rule="evenodd" clip-rule="evenodd" d="M1328.44 81.962a5.184 5.184 0 007.37 0c2.04-2.05 10.47-16.462 9.72-17.212-.74-.75-15.05 7.737-17.09 9.788a5.287 5.287 0 000 7.424zm3.69-2.212c.82 0 1.49-.671 1.49-1.5 0-.828-.67-1.5-1.49-1.5-.83 0-1.49.672-1.49 1.5 0 .829.66 1.5 1.49 1.5z" fill="#5F82FF"/><ellipse cx="1317.23" cy="87.25" rx="1.489" ry="1.5" fill="#5F82FF"/><ellipse cx="1323.19" cy="93.25" rx="1.489" ry="1.5" fill="#5F82FF"/><ellipse cx="1332.13" cy="95.5" rx="1.489" ry="1.5" fill="#5F82FF"/><ellipse cx="1341.06" cy="93.25" rx="1.489" ry="1.5" fill="#5F82FF"/><ellipse cx="1346.28" cy="87.25" rx="1.489" ry="1.5" fill="#5F82FF"/><ellipse cx="1348.51" cy="78.25" rx="1.489" ry="1.5" fill="#5F82FF"/><filter id="filter1_d" x="1256" y="25" width="152" height="127.911" filterUnits="userSpaceOnUse" color-interpolation-filters="sRGB"><feFlood flood-opacity="0" result="BackgroundImageFix"/><feColorMatrix in="SourceAlpha" values="0 0 0 0 0 0 0 0 0 0 0 0 0 0 0 0 0 0 127 0" result="hardAlpha"/><feOffset dy="10"/><feGaussianBlur stdDeviation="15"/><feColorMatrix values="0 0 0 0 0.894415 0 0 0 0 0.918495 0 0 0 0 0.984716 0 0 0 1 0"/><feBlend in2="BackgroundImageFix" result="effect1_dropShadow"/><feBlend in="SourceGraphic" in2="effect1_dropShadow" result="shape"/></filter></g></symbol></svg>