<svg xmlns="http://www.w3.org/2000/svg"><symbol id="Line" preserveAspectRatio="none" viewBox="0 0 1436 309"><path d="M0 306.51c202.703 0 347.472-34.877 480.333-32.752 309.407 4.947 163.306-142.076 480.334-142.076C1305.86 131.682 1223.24 2 1441 2" stroke="#5F82FF" stroke-width="3"/></symbol><symbol id="circles" viewBox="0 0 1270 330"><g filter="url(#filter0_d)"><circle cx="839.5" cy="136.5" r="7.5" fill="#fff"/><circle cx="839.5" cy="136.5" r="6.5" stroke="#5E80FE" stroke-width="2"/></g><g filter="url(#filter1_d)"><circle cx="1247.5" cy="22.5" r="7.5" fill="#fff"/><circle cx="1247.5" cy="22.5" r="6.5" stroke="#5E80FE" stroke-width="2"/></g><g filter="url(#filter2_d)"><circle cx="22.5" cy="307.5" r="7.5" fill="#fff"/><circle cx="22.5" cy="307.5" r="6.5" stroke="#5E80FE" stroke-width="2"/></g><g filter="url(#filter3_d)"><circle cx="430.5" cy="277.5" r="7.5" fill="#fff"/><circle cx="430.5" cy="277.5" r="6.5" stroke="#5E80FE" stroke-width="2"/></g></symbol><g id="circleGroup" fill="#fff"><g id="circle0" filter="url(#filter0_d)"><circle cx="839.5" cy="136.5" r="7.5"/><circle cx="839.5" cy="136.5" r="6.5" stroke="#5E80FE" stroke-width="2"/></g><g id="circle1"><circle cx="1247.5" cy="22.5" r="7.5"/><circle cx="1247.5" cy="22.5" r="6.5" stroke="#5E80FE" stroke-width="2"/></g><g id="circle2" filter="url(#filter2_d)"><circle cx="22.5" cy="307.5" r="7.5"/><circle cx="22.5" cy="307.5" r="6.5" stroke="#5E80FE" stroke-width="2"/></g><g id="circle3" filter="url(#filter3_d)"><circle cx="430.5" cy="277.5" r="7.5"/><circle cx="430.5" cy="277.5" r="6.5" stroke="#5E80FE" stroke-width="2"/></g><g id="circle4" filter="url(#filter4_d)"><mask id="path-9-inside-1" fill="#fff"><path fill-rule="evenodd" clip-rule="evenodd" d="M477 191a3 3 0 00-3-3h-86a3 3 0 00-3 3v57.26a3 3 0 003 3h36.669a3 3 0 012.485 1.319l1.361 2.012c1.19 1.759 3.78 1.759 4.97 0l1.361-2.012a2.998 2.998 0 012.485-1.319H474a3 3 0 003-3V191z"/></mask><path fill-rule="evenodd" clip-rule="evenodd" d="M477 191a3 3 0 00-3-3h-86a3 3 0 00-3 3v57.26a3 3 0 003 3h36.669a3 3 0 012.485 1.319l1.361 2.012c1.19 1.759 3.78 1.759 4.97 0l1.361-2.012a2.998 2.998 0 012.485-1.319H474a3 3 0 003-3V191z"/><path d="M434.846 252.579l-.829-.56.829.56zm-6.331 2.012l.828-.56-.828.56zm-1.361-2.012l-.828.561.828-.561zM388 189h86v-2h-86v2zm-2 59.26V191h-2v57.26h2zm38.669 2H388v2h36.669v-2zm4.674 3.771l-1.36-2.012-1.657 1.121 1.361 2.011 1.656-1.12zm4.674-2.012l-1.36 2.012 1.656 1.12 1.361-2.011-1.657-1.121zM474 250.26h-36.669v2H474v-2zm2-59.26v57.26h2V191h-2zm-2 61.26a4 4 0 004-4h-2a2 2 0 01-2 2v2zm-38.326.88c.372-.55.993-.88 1.657-.88v-2c-1.328 0-2.57.659-3.314 1.759l1.657 1.121zm-7.987 2.011c1.586 2.346 5.04 2.346 6.626 0l-1.656-1.12a2 2 0 01-3.314 0l-1.656 1.12zm-3.018-2.891c.664 0 1.285.33 1.657.88l1.657-1.121a4.001 4.001 0 00-3.314-1.759v2zm-40.669-4a4 4 0 004 4v-2a2 2 0 01-2-2h-2zM474 189a2 2 0 012 2h2a4 4 0 00-4-4v2zm-86-2a4 4 0 00-4 4h2a2 2 0 012-2v-2z" fill="#D8E0F7" mask="url(#path-9-inside-1)"/><path d="M414 221.25c0-9.527 7.668-17.25 17.128-17.25 1.743 0 3.426.262 5.011.75" stroke="#5F82FF" stroke-width="4" stroke-linecap="round" stroke-linejoin="round"/><path fill-rule="evenodd" clip-rule="evenodd" d="M427.442 224.962a5.185 5.185 0 007.372 0c2.035-2.05 10.462-16.462 9.718-17.212-.745-.75-15.055 7.737-17.09 9.788a5.275 5.275 0 000 7.424zm3.685-2.212c.823 0 1.49-.672 1.49-1.5s-.667-1.5-1.49-1.5c-.822 0-1.489.672-1.489 1.5s.667 1.5 1.489 1.5z" fill="#5F82FF"/><ellipse cx="416.234" cy="230.25" rx="1.489" ry="1.5" fill="#5F82FF"/><ellipse cx="422.191" cy="236.25" rx="1.489" ry="1.5" fill="#5F82FF"/><ellipse cx="431.128" cy="238.5" rx="1.489" ry="1.5" fill="#5F82FF"/><ellipse cx="440.064" cy="236.25" rx="1.489" ry="1.5" fill="#5F82FF"/><ellipse cx="445.277" cy="230.25" rx="1.489" ry="1.5" fill="#5F82FF"/><ellipse cx="447.511" cy="221.25" rx="1.489" ry="1.5" fill="#5F82FF"/></g><defs><filter id="filter0_d" x="817" y="114" width="45" height="45" filterUnits="userSpaceOnUse" color-interpolation-filters="sRGB"><feFlood flood-opacity="0" result="BackgroundImageFix"/><feColorMatrix in="SourceAlpha" values="0 0 0 0 0 0 0 0 0 0 0 0 0 0 0 0 0 0 127 0" result="hardAlpha"/><feOffset/><feGaussianBlur stdDeviation="7.5"/><feColorMatrix values="0 0 0 0 0.323144 0 0 0 0 0.512664 0 0 0 0 1 0 0 0 0.25 0"/><feBlend in2="BackgroundImageFix" result="effect1_dropShadow"/><feBlend in="SourceGraphic" in2="effect1_dropShadow" result="shape"/></filter><filter id="filter1_d" x="1225" y="0" width="45" height="45" filterUnits="userSpaceOnUse" color-interpolation-filters="sRGB"><feFlood flood-opacity="0" result="BackgroundImageFix"/><feColorMatrix in="SourceAlpha" values="0 0 0 0 0 0 0 0 0 0 0 0 0 0 0 0 0 0 127 0" result="hardAlpha"/><feOffset/><feGaussianBlur stdDeviation="7.5"/><feColorMatrix values="0 0 0 0 0.323144 0 0 0 0 0.512664 0 0 0 0 1 0 0 0 0.25 0"/><feBlend in2="BackgroundImageFix" result="effect1_dropShadow"/><feBlend in="SourceGraphic" in2="effect1_dropShadow" result="shape"/></filter><filter id="filter2_d" x="0" y="285" width="45" height="45" filterUnits="userSpaceOnUse" color-interpolation-filters="sRGB"><feFlood flood-opacity="0" result="BackgroundImageFix"/><feColorMatrix in="SourceAlpha" values="0 0 0 0 0 0 0 0 0 0 0 0 0 0 0 0 0 0 127 0" result="hardAlpha"/><feOffset/><feGaussianBlur stdDeviation="7.5"/><feColorMatrix values="0 0 0 0 0.323144 0 0 0 0 0.512664 0 0 0 0 1 0 0 0 0.25 0"/><feBlend in2="BackgroundImageFix" result="effect1_dropShadow"/><feBlend in="SourceGraphic" in2="effect1_dropShadow" result="shape"/></filter><filter id="filter3_d" x="408" y="255" width="45" height="45" filterUnits="userSpaceOnUse" color-interpolation-filters="sRGB"><feFlood flood-opacity="0" result="BackgroundImageFix"/><feColorMatrix in="SourceAlpha" values="0 0 0 0 0 0 0 0 0 0 0 0 0 0 0 0 0 0 127 0" result="hardAlpha"/><feOffset/><feGaussianBlur stdDeviation="7.5"/><feColorMatrix values="0 0 0 0 0.323144 0 0 0 0 0.512664 0 0 0 0 1 0 0 0 0.25 0"/><feBlend in2="BackgroundImageFix" result="effect1_dropShadow"/><feBlend in="SourceGraphic" in2="effect1_dropShadow" result="shape"/></filter><filter id="filter4_d" x="355" y="168" width="152" height="127.911" filterUnits="userSpaceOnUse" color-interpolation-filters="sRGB"><feFlood flood-opacity="0" result="BackgroundImageFix"/><feColorMatrix in="SourceAlpha" values="0 0 0 0 0 0 0 0 0 0 0 0 0 0 0 0 0 0 127 0" result="hardAlpha"/><feOffset dy="10"/><feGaussianBlur stdDeviation="15"/><feColorMatrix values="0 0 0 0 0.894415 0 0 0 0 0.918495 0 0 0 0 0.984716 0 0 0 1 0"/><feBlend in2="BackgroundImageFix" result="effect1_dropShadow"/><feBlend in="SourceGraphic" in2="effect1_dropShadow" result="shape"/></filter></defs></g><symbol id="hover" viewBox="0 0 152 128"><g filter="url(#filter0_d)"><mask id="path-1-inside-1" fill="#fff"><path fill-rule="evenodd" clip-rule="evenodd" d="M122 23a3 3 0 00-3-3H33a3 3 0 00-3 3v57.26a3 3 0 003 3h36.67a3 3 0 012.484 1.32l1.36 2.011c1.19 1.76 3.781 1.76 4.971 0l1.36-2.012a3 3 0 012.486-1.319H119a3 3 0 003-3V23z"/></mask><path fill-rule="evenodd" clip-rule="evenodd" d="M122 23a3 3 0 00-3-3H33a3 3 0 00-3 3v57.26a3 3 0 003 3h36.67a3 3 0 012.484 1.32l1.36 2.011c1.19 1.76 3.781 1.76 4.971 0l1.36-2.012a3 3 0 012.486-1.319H119a3 3 0 003-3V23z" fill="#fff"/><path d="M79.846 84.58l-.829-.56.829.56zm-6.331 2.011l.828-.56-.828.56zm-1.36-2.012l-.83.56.83-.56zM33 21h86v-2H33v2zm-2 59.26V23h-2v57.26h2zm38.67 2H33v2h36.67v-2zm4.673 3.771l-1.36-2.012-1.657 1.12 1.36 2.012 1.657-1.12zm4.674-2.012l-1.36 2.012 1.656 1.12 1.36-2.011-1.656-1.12zM119 82.26H82.33v2H119v-2zM121 23v57.26h2V23h-2zm-2 61.26a4 4 0 004-4h-2a2 2 0 01-2 2v2zm-38.326.88a2 2 0 011.657-.88v-2a4 4 0 00-3.314 1.76l1.657 1.12zm-7.988 2.011c1.587 2.346 5.041 2.346 6.627 0l-1.656-1.12a2 2 0 01-3.314 0l-1.657 1.12zM69.67 84.26a2 2 0 011.657.88l1.657-1.12a4 4 0 00-3.314-1.76v2zm-40.67-4a4 4 0 004 4v-2a2 2 0 01-2-2h-2zM119 21a2 2 0 012 2h2a4 4 0 00-4-4v2zm-86-2a4 4 0 00-4 4h2a2 2 0 012-2v-2z" fill="#D8E0F7" mask="url(#path-1-inside-1)"/><path d="M59 53.25C59 43.723 66.668 36 76.128 36c1.743 0 3.426.262 5.01.75" stroke="#5F82FF" stroke-width="4" stroke-linecap="round" stroke-linejoin="round"/><path fill-rule="evenodd" clip-rule="evenodd" d="M72.442 56.962a5.187 5.187 0 007.372 0c2.035-2.05 10.463-16.462 9.718-17.212-.745-.75-15.055 7.737-17.09 9.788a5.277 5.277 0 000 7.424zm3.685-2.212c.823 0 1.49-.672 1.49-1.5s-.667-1.5-1.49-1.5c-.822 0-1.489.672-1.489 1.5s.667 1.5 1.49 1.5z" fill="#5F82FF"/><ellipse cx="61.234" cy="62.25" rx="1.489" ry="1.5" fill="#5F82FF"/><ellipse cx="67.192" cy="68.25" rx="1.489" ry="1.5" fill="#5F82FF"/><ellipse cx="76.127" cy="70.5" rx="1.489" ry="1.5" fill="#5F82FF"/><ellipse cx="85.064" cy="68.25" rx="1.489" ry="1.5" fill="#5F82FF"/><ellipse cx="90.277" cy="62.25" rx="1.489" ry="1.5" fill="#5F82FF"/><ellipse cx="92.511" cy="53.25" rx="1.489" ry="1.5" fill="#5F82FF"/></g><defs><filter id="filter0_d" x="0" y="0" width="152" height="127.911" filterUnits="userSpaceOnUse" color-interpolation-filters="sRGB"><feFlood flood-opacity="0" result="BackgroundImageFix"/><feColorMatrix in="SourceAlpha" values="0 0 0 0 0 0 0 0 0 0 0 0 0 0 0 0 0 0 127 0" result="hardAlpha"/><feOffset dy="10"/><feGaussianBlur stdDeviation="15"/><feColorMatrix values="0 0 0 0 0.894415 0 0 0 0 0.918495 0 0 0 0 0.984716 0 0 0 1 0"/><feBlend in2="BackgroundImageFix" result="effect1_dropShadow"/><feBlend in="SourceGraphic" in2="effect1_dropShadow" result="shape"/></filter></defs></symbol></svg>