<svg xmlns="http://www.w3.org/2000/svg"><symbol id="diagram" viewBox="0 0 1436 465"><path d="M0 422.51c202.703 0 347.472-34.877 480.333-32.752 309.407 4.947 163.306-142.076 480.334-142.076C1305.86 247.682 1223.24 118 1441 118" stroke="#5F82FF" stroke-width="3"/><path d="M480.333 389.758C347.472 387.633 202.703 422.51 0 422.51V465h1441V118c-217.76 0-135.14 129.682-480.333 129.682-317.028 0-170.927 147.023-480.334 142.076z" fill="url(#paint0_linear)" fill-opacity=".4"/><path stroke="#D8E0F7" d="M924.5 200v189"/><g filter="url(#filter0_d)"><circle cx="924.5" cy="248.5" r="7.5" fill="#fff"/><circle cx="924.5" cy="248.5" r="6.5" stroke="#5E80FE" stroke-width="2"/></g><path stroke="#D8E0F7" d="M1332.5 0v317"/><g filter="url(#filter1_d)"><circle cx="1332.5" cy="134.5" r="7.5" fill="#fff"/><circle cx="1332.5" cy="134.5" r="6.5" stroke="#5E80FE" stroke-width="2"/></g><path stroke="#D8E0F7" d="M515.5 378v59m-408-175v190"/><g filter="url(#filter2_d)"><circle cx="107.5" cy="419.5" r="7.5" fill="#fff"/><circle cx="107.5" cy="419.5" r="6.5" stroke="#5E80FE" stroke-width="2"/></g><defs><filter id="filter0_d" x="902" y="226" width="45" height="45" filterUnits="userSpaceOnUse" color-interpolation-filters="sRGB"><feFlood flood-opacity="0" result="BackgroundImageFix"/><feColorMatrix in="SourceAlpha" values="0 0 0 0 0 0 0 0 0 0 0 0 0 0 0 0 0 0 127 0" result="hardAlpha"/><feOffset/><feGaussianBlur stdDeviation="7.5"/><feColorMatrix values="0 0 0 0 0.323144 0 0 0 0 0.512664 0 0 0 0 1 0 0 0 0.25 0"/><feBlend in2="BackgroundImageFix" result="effect1_dropShadow"/><feBlend in="SourceGraphic" in2="effect1_dropShadow" result="shape"/></filter><filter id="filter1_d" x="1310" y="112" width="45" height="45" filterUnits="userSpaceOnUse" color-interpolation-filters="sRGB"><feFlood flood-opacity="0" result="BackgroundImageFix"/><feColorMatrix in="SourceAlpha" values="0 0 0 0 0 0 0 0 0 0 0 0 0 0 0 0 0 0 127 0" result="hardAlpha"/><feOffset/><feGaussianBlur stdDeviation="7.5"/><feColorMatrix values="0 0 0 0 0.323144 0 0 0 0 0.512664 0 0 0 0 1 0 0 0 0.25 0"/><feBlend in2="BackgroundImageFix" result="effect1_dropShadow"/><feBlend in="SourceGraphic" in2="effect1_dropShadow" result="shape"/></filter><filter id="filter2_d" x="85" y="397" width="45" height="45" filterUnits="userSpaceOnUse" color-interpolation-filters="sRGB"><feFlood flood-opacity="0" result="BackgroundImageFix"/><feColorMatrix in="SourceAlpha" values="0 0 0 0 0 0 0 0 0 0 0 0 0 0 0 0 0 0 127 0" result="hardAlpha"/><feOffset/><feGaussianBlur stdDeviation="7.5"/><feColorMatrix values="0 0 0 0 0.323144 0 0 0 0 0.512664 0 0 0 0 1 0 0 0 0.25 0"/><feBlend in2="BackgroundImageFix" result="effect1_dropShadow"/><feBlend in="SourceGraphic" in2="effect1_dropShadow" result="shape"/></filter><linearGradient id="paint0_linear" x1="278.466" y1="465.443" x2="278.466" y2="10.005" gradientUnits="userSpaceOnUse"><stop stop-color="#4B71FF" stop-opacity="0"/><stop offset="1" stop-color="#6B89F8"/></linearGradient></defs></symbol></svg>