<svg width="26" height="22" viewBox="0 0 26 22" fill="none" xmlns="http://www.w3.org/2000/svg">
<g filter="url(#filter0_d)">
<path fill-rule="evenodd" clip-rule="evenodd" d="M21.0328 1.84044C20.4253 2.11764 19.7726 2.3042 19.0877 2.38901C19.7868 1.9581 20.3239 1.27597 20.5767 0.463451C19.9222 0.86229 19.1973 1.15194 18.4257 1.30803C17.8081 0.631997 16.9276 0.210632 15.9535 0.210632C14.0832 0.210632 12.5663 1.76889 12.5663 3.6902C12.5663 3.96316 12.596 4.2287 12.654 4.48337C9.83853 4.33762 7.3424 2.95162 5.67204 0.847449C5.38053 1.36157 5.2135 1.9589 5.2135 2.59651C5.2135 3.80363 5.81147 4.86856 6.72005 5.49306C6.16541 5.47451 5.64276 5.31815 5.18615 5.05712V5.10084C5.18615 6.78763 6.35476 8.1935 7.90258 8.5135C7.61882 8.593 7.31957 8.6354 7.01181 8.6354C6.79357 8.6354 6.581 8.6142 6.37462 8.57313C6.80543 9.95594 8.05659 10.9619 9.53864 10.99C8.37931 11.9228 6.91868 12.4794 5.33113 12.4794C5.05768 12.4794 4.78862 12.4635 4.52368 12.4309C6.02249 13.4183 7.80327 13.9944 9.71599 13.9944C15.946 13.9944 19.3531 8.69158 19.3531 4.09368C19.3531 3.94262 19.3498 3.79289 19.3433 3.64316C20.0053 3.1529 20.5798 2.5394 21.0338 1.8411" fill="#6188FF"/>
</g>
<defs>
<filter id="filter0_d" x="0.523682" y="0.210632" width="24.5101" height="21.7838" filterUnits="userSpaceOnUse" color-interpolation-filters="sRGB">
<feFlood flood-opacity="0" result="BackgroundImageFix"/>
<feColorMatrix in="SourceAlpha" type="matrix" values="0 0 0 0 0 0 0 0 0 0 0 0 0 0 0 0 0 0 127 0" result="hardAlpha"/>
<feOffset dy="4"/>
<feGaussianBlur stdDeviation="2"/>
<feComposite in2="hardAlpha" operator="out"/>
<feColorMatrix type="matrix" values="0 0 0 0 0 0 0 0 0 0 0 0 0 0 0 0 0 0 0.25 0"/>
<feBlend mode="normal" in2="BackgroundImageFix" result="effect1_dropShadow"/>
<feBlend mode="normal" in="SourceGraphic" in2="effect1_dropShadow" result="shape"/>
</filter>
</defs>
</svg>
